HIERARCHY
ROOT newVegas:Hips
{
	OFFSET 0.000000 96.479958 0.000000
	CHANNELS 6 Xposition Yposition Zposition Xrotation Yrotation Zrotation
	JOINT newVegas:Pelvis
	{
		OFFSET 0.000000 0.000000 0.000000
		CHANNELS 3 Xrotation Yrotation Zrotation
		JOINT newVegas:LeftUpLeg
		{
			OFFSET 18.735201 -5.666702 -4.541200
			CHANNELS 3 Xrotation Yrotation Zrotation
			JOINT newVegas:LeftLeg
			{
				OFFSET -0.021200 -31.938179 0.493100
				CHANNELS 3 Xrotation Yrotation Zrotation
				JOINT newVegas:LeftFoot
				{
					OFFSET 0.021200 -31.938179 -4.336299
					CHANNELS 3 Xrotation Yrotation Zrotation
					JOINT newVegas:LeftToeBase
					{
						OFFSET 0.943001 -26.722000 15.023500
						CHANNELS 3 Xrotation Yrotation Zrotation
						End Site
						{
							OFFSET 0.000000 30.670183 0.000000
						}
					}
				}
				JOINT newVegas:Left_PantLeg
				{
					OFFSET 0.663870 -9.044666 -1.108900
					CHANNELS 3 Xrotation Yrotation Zrotation
					End Site
					{
						OFFSET 1.415995 20.635357 0.000000
					}
				}
			}
		}
		JOINT newVegas:RightUpLeg
		{
			OFFSET -18.735201 -5.666702 -4.541200
			CHANNELS 3 Xrotation Yrotation Zrotation
			JOINT newVegas:RightLeg
			{
				OFFSET 0.018946 -31.938133 0.493100
				CHANNELS 3 Xrotation Yrotation Zrotation
				JOINT newVegas:RightFoot
				{
					OFFSET -0.018946 -31.938126 -4.336299
					CHANNELS 3 Xrotation Yrotation Zrotation
					JOINT newVegas:RightToeBase
					{
						OFFSET -0.943001 -26.722004 15.023500
						CHANNELS 3 Xrotation Yrotation Zrotation
						End Site
						{
							OFFSET 0.000000 30.670187 0.000000
						}
					}
				}
				JOINT newVegas:Right_PantLeg
				{
					OFFSET -0.661674 -9.044716 -1.108900
					CHANNELS 3 Xrotation Yrotation Zrotation
					End Site
					{
						OFFSET -1.415958 20.635269 0.000000
					}
				}
			}
		}
	}
	JOINT newVegas:Spine
	{
		OFFSET 0.000000 10.199997 -0.299500
		CHANNELS 3 Xrotation Yrotation Zrotation
		JOINT newVegas:Spine1
		{
			OFFSET 0.000000 11.900002 -1.516600
			CHANNELS 3 Xrotation Yrotation Zrotation
			JOINT newVegas:Spine2
			{
				OFFSET 0.000000 13.600006 -2.842500
				CHANNELS 3 Xrotation Yrotation Zrotation
				JOINT newVegas:Neck
				{
					OFFSET 0.000000 9.624100 -2.890100
					CHANNELS 3 Xrotation Yrotation Zrotation
					JOINT newVegas:Head
					{
						OFFSET 0.000000 14.068802 -1.351900
						CHANNELS 3 Xrotation Yrotation Zrotation
						JOINT newVegas:Hair_Back
						{
							OFFSET 0.000000 3.231903 -17.524799
							CHANNELS 3 Xrotation Yrotation Zrotation
							End Site
							{
								OFFSET 0.000000 19.849884 0.000000
							}
						}
						JOINT newVegas:Hair_Front
						{
							OFFSET 0.000000 31.260406 4.573800
							CHANNELS 3 Xrotation Yrotation Zrotation
							JOINT newVegas:Hair_Front1
							{
								OFFSET 0.000000 2.284103 11.993300
								CHANNELS 3 Xrotation Yrotation Zrotation
								JOINT newVegas:Hair_Front2
								{
									OFFSET 0.000000 2.284103 11.993300
									CHANNELS 3 Xrotation Yrotation Zrotation
									End Site
									{
										OFFSET 0.000000 12.208862 0.000000
									}
								}
							}
						}
						JOINT newVegas:Jowel
						{
							OFFSET 0.000000 -7.458206 6.864100
							CHANNELS 3 Xrotation Yrotation Zrotation
							End Site
							{
								OFFSET 0.000000 19.849884 0.000000
							}
						}
					}
				}
				JOINT newVegas:LeftShoulder
				{
					OFFSET 15.263000 10.923401 -0.547700
					CHANNELS 3 Xrotation Yrotation Zrotation
					JOINT newVegas:LeftArm
					{
						OFFSET 25.438599 -2.830597 -13.032500
						CHANNELS 3 Xrotation Yrotation Zrotation
						JOINT newVegas:LeftForeArm
						{
							OFFSET 29.960503 0.000000 0.000000
							CHANNELS 3 Xrotation Yrotation Zrotation
							JOINT newVegas:LeftHand
							{
								OFFSET 27.849251 0.000000 0.000000
								CHANNELS 3 Xrotation Yrotation Zrotation
								JOINT newVegas:LeftHandThumb1
								{
									OFFSET 4.487587 -3.305161 6.305391
									CHANNELS 3 Xrotation Yrotation Zrotation
									JOINT newVegas:LeftHandThumb2
									{
										OFFSET 5.480453 -3.164139 3.164143
										CHANNELS 3 Xrotation Yrotation Zrotation
										JOINT newVegas:LeftHandThumb3
										{
											OFFSET 5.159721 -2.978973 2.978967
											CHANNELS 3 Xrotation Yrotation Zrotation
											End Site
											{
												OFFSET 2.494507 5.926697 1.738678
											}
										}
									}
								}
								JOINT newVegas:LeftHandIndex1
								{
									OFFSET 18.578728 -0.527832 5.208049
									CHANNELS 3 Xrotation Yrotation Zrotation
									JOINT newVegas:LeftHandIndex2
									{
										OFFSET 3.192009 0.000000 0.000000
										CHANNELS 3 Xrotation Yrotation Zrotation
										JOINT newVegas:LeftHandIndex3
										{
											OFFSET 3.835129 0.000000 0.000000
											CHANNELS 3 Xrotation Yrotation Zrotation
											End Site
											{
												OFFSET -0.034599 3.816971 0.371180
											}
										}
									}
								}
								JOINT newVegas:LeftHandMiddle1
								{
									OFFSET 18.476105 0.000000 0.000000
									CHANNELS 3 Xrotation Yrotation Zrotation
									JOINT newVegas:LeftHandMiddle2
									{
										OFFSET 3.324875 0.000000 0.000000
										CHANNELS 3 Xrotation Yrotation Zrotation
										JOINT newVegas:LeftHandMiddle3
										{
											OFFSET 4.596550 0.000000 0.000000
											CHANNELS 3 Xrotation Yrotation Zrotation
											End Site
											{
												OFFSET 0.057701 4.578827 0.399218
											}
										}
									}
								}
								JOINT newVegas:LeftHandRing1
								{
									OFFSET 17.732719 0.121887 -4.201567
									CHANNELS 3 Xrotation Yrotation Zrotation
									JOINT newVegas:LeftHandRing2
									{
										OFFSET 2.733170 0.000000 0.000000
										CHANNELS 3 Xrotation Yrotation Zrotation
										JOINT newVegas:LeftHandRing3
										{
											OFFSET 3.178268 0.000000 0.000000
											CHANNELS 3 Xrotation Yrotation Zrotation
											End Site
											{
												OFFSET 0.119102 3.170624 0.185394
											}
										}
									}
								}
								JOINT newVegas:LeftHandPinky1
								{
									OFFSET 15.989624 -0.606689 -7.535461
									CHANNELS 3 Xrotation Yrotation Zrotation
									JOINT newVegas:LeftHandPinky2
									{
										OFFSET 2.538986 0.000000 0.000000
										CHANNELS 3 Xrotation Yrotation Zrotation
										JOINT newVegas:LeftHandPinky3
										{
											OFFSET 2.593102 0.000000 0.000000
											CHANNELS 3 Xrotation Yrotation Zrotation
											End Site
											{
												OFFSET -0.150902 2.584198 0.152708
											}
										}
									}
								}
							}
							JOINT newVegas:Left_Sleeve
							{
								OFFSET 0.267448 -0.649796 0.577675
								CHANNELS 3 Xrotation Yrotation Zrotation
								End Site
								{
									OFFSET 0.000000 15.991241 0.000000
								}
							}
							JOINT newVegas:Left_CapeC
							{
								OFFSET 15.715958 -8.608795 -6.935905
								CHANNELS 3 Xrotation Yrotation Zrotation
								JOINT newVegas:Left_CapeC1
								{
									OFFSET 0.000000 -8.688499 0.000000
									CHANNELS 3 Xrotation Yrotation Zrotation
									End Site
									{
										OFFSET 0.000000 8.688499 0.000000
									}
								}
							}
						}
						JOINT newVegas:Left_CapeB
						{
							OFFSET 26.118385 -8.608795 -7.079235
							CHANNELS 3 Xrotation Yrotation Zrotation
							JOINT newVegas:Left_CapeB1
							{
								OFFSET 0.000000 -8.688499 0.000000
								CHANNELS 3 Xrotation Yrotation Zrotation
								End Site
								{
									OFFSET 0.000000 8.688499 0.000000
								}
							}
						}
						JOINT newVegas:Left_CapeA
						{
							OFFSET 5.115639 -8.608795 -10.395809
							CHANNELS 3 Xrotation Yrotation Zrotation
							JOINT newVegas:Left_CapeA1
							{
								OFFSET 0.000000 -8.688499 0.000000
								CHANNELS 3 Xrotation Yrotation Zrotation
								End Site
								{
									OFFSET 0.000000 8.688499 0.000000
								}
							}
						}
					}
				}
				JOINT newVegas:RightShoulder
				{
					OFFSET -15.263000 10.923401 -0.547700
					CHANNELS 3 Xrotation Yrotation Zrotation
					JOINT newVegas:RightArm
					{
						OFFSET -25.438599 -2.830597 -13.032500
						CHANNELS 3 Xrotation Yrotation Zrotation
						JOINT newVegas:RightForeArm
						{
							OFFSET -29.960503 0.000000 0.000000
							CHANNELS 3 Xrotation Yrotation Zrotation
							JOINT newVegas:RightHand
							{
								OFFSET -27.849251 0.000000 0.000000
								CHANNELS 3 Xrotation Yrotation Zrotation
								JOINT newVegas:RightHandThumb1
								{
									OFFSET -4.487587 -3.305161 6.305391
									CHANNELS 3 Xrotation Yrotation Zrotation
									JOINT newVegas:RightHandThumb2
									{
										OFFSET -5.480453 -3.164139 3.164143
										CHANNELS 3 Xrotation Yrotation Zrotation
										JOINT newVegas:RightHandThumb3
										{
											OFFSET -5.159721 -2.978973 2.978967
											CHANNELS 3 Xrotation Yrotation Zrotation
											End Site
											{
												OFFSET -2.494507 5.926697 1.738678
											}
										}
									}
								}
								JOINT newVegas:RightHandIndex1
								{
									OFFSET -18.578728 -0.527832 5.208049
									CHANNELS 3 Xrotation Yrotation Zrotation
									JOINT newVegas:RightHandIndex2
									{
										OFFSET -3.192009 0.000000 0.000000
										CHANNELS 3 Xrotation Yrotation Zrotation
										JOINT newVegas:RightHandIndex3
										{
											OFFSET -3.835129 0.000000 0.000000
											CHANNELS 3 Xrotation Yrotation Zrotation
											End Site
											{
												OFFSET 0.034599 3.816971 0.371180
											}
										}
									}
								}
								JOINT newVegas:RightHandMiddle1
								{
									OFFSET -18.476105 0.000000 0.000000
									CHANNELS 3 Xrotation Yrotation Zrotation
									JOINT newVegas:RightHandMiddle2
									{
										OFFSET -3.324875 0.000000 0.000000
										CHANNELS 3 Xrotation Yrotation Zrotation
										JOINT newVegas:RightHandMiddle3
										{
											OFFSET -4.596550 0.000000 0.000000
											CHANNELS 3 Xrotation Yrotation Zrotation
											End Site
											{
												OFFSET -0.057701 4.578827 0.399218
											}
										}
									}
								}
								JOINT newVegas:RightHandRing1
								{
									OFFSET -17.732719 0.121887 -4.201567
									CHANNELS 3 Xrotation Yrotation Zrotation
									JOINT newVegas:RightHandRing2
									{
										OFFSET -2.733170 0.000000 0.000000
										CHANNELS 3 Xrotation Yrotation Zrotation
										JOINT newVegas:RightHandRing3
										{
											OFFSET -3.178268 0.000000 0.000000
											CHANNELS 3 Xrotation Yrotation Zrotation
											End Site
											{
												OFFSET -0.119102 3.170624 0.185394
											}
										}
									}
								}
								JOINT newVegas:RightHandPinky1
								{
									OFFSET -15.989624 -0.606689 -7.535461
									CHANNELS 3 Xrotation Yrotation Zrotation
									JOINT newVegas:RightHandPinky2
									{
										OFFSET -2.538986 0.000000 0.000000
										CHANNELS 3 Xrotation Yrotation Zrotation
										JOINT newVegas:RightHandPinky3
										{
											OFFSET -2.593102 0.000000 0.000000
											CHANNELS 3 Xrotation Yrotation Zrotation
											End Site
											{
												OFFSET 0.150902 2.584198 0.152708
											}
										}
									}
								}
							}
							JOINT newVegas:Right_CapeC
							{
								OFFSET -15.715958 -8.608795 -6.935905
								CHANNELS 3 Xrotation Yrotation Zrotation
								JOINT newVegas:Right_CapeC1
								{
									OFFSET 0.000000 -8.688499 0.000000
									CHANNELS 3 Xrotation Yrotation Zrotation
									End Site
									{
										OFFSET 0.000000 8.688499 0.000000
									}
								}
							}
							JOINT newVegas:Right_Sleeve
							{
								OFFSET -0.267448 -0.649994 0.577675
								CHANNELS 3 Xrotation Yrotation Zrotation
								End Site
								{
									OFFSET 0.000000 15.991302 0.000000
								}
							}
						}
						JOINT newVegas:Right_CapeA
						{
							OFFSET -5.115540 -8.608795 -10.395824
							CHANNELS 3 Xrotation Yrotation Zrotation
							JOINT newVegas:Right_CapeA1
							{
								OFFSET 0.000000 -8.688499 0.000000
								CHANNELS 3 Xrotation Yrotation Zrotation
								End Site
								{
									OFFSET 0.000000 8.688499 0.000000
								}
							}
						}
						JOINT newVegas:Right_CapeB
						{
							OFFSET -26.118187 -8.608795 -7.079266
							CHANNELS 3 Xrotation Yrotation Zrotation
							JOINT newVegas:Right_CapeB1
							{
								OFFSET 0.000000 -8.688499 0.000000
								CHANNELS 3 Xrotation Yrotation Zrotation
								End Site
								{
									OFFSET 0.000000 8.688499 0.000000
								}
							}
						}
					}
				}
				JOINT newVegas:Left_Collar
				{
					OFFSET 18.625099 8.655502 8.828100
					CHANNELS 3 Xrotation Yrotation Zrotation
					JOINT newVegas:Left_Collar1
					{
						OFFSET 14.783401 10.540405 -1.259500
						CHANNELS 3 Xrotation Yrotation Zrotation
						End Site
						{
							OFFSET 0.000000 18.199875 0.000000
						}
					}
				}
				JOINT newVegas:Collar_Back
				{
					OFFSET 0.000000 15.630707 -20.132601
					CHANNELS 3 Xrotation Yrotation Zrotation
					End Site
					{
						OFFSET 0.000000 22.523010 0.000000
					}
				}
				JOINT newVegas:Left_Peck
				{
					OFFSET 17.239599 -5.132599 25.482599
					CHANNELS 3 Xrotation Yrotation Zrotation
					End Site
					{
						OFFSET 0.000000 22.523010 0.000000
					}
				}
				JOINT newVegas:Right_Peck
				{
					OFFSET -17.239599 -5.132202 25.482599
					CHANNELS 3 Xrotation Yrotation Zrotation
					End Site
					{
						OFFSET 0.000000 22.523010 0.000000
					}
				}
				JOINT newVegas:Right_Collar
				{
					OFFSET -18.625099 8.655792 8.828100
					CHANNELS 3 Xrotation Yrotation Zrotation
					JOINT newVegas:Right_Collar1
					{
						OFFSET -14.783401 10.539993 -1.259500
						CHANNELS 3 Xrotation Yrotation Zrotation
						End Site
						{
							OFFSET 0.000000 18.199631 0.000000
						}
					}
				}
			}
		}
		JOINT newVegas:Belly
		{
			OFFSET 0.000000 -6.540398 9.014299
			CHANNELS 3 Xrotation Yrotation Zrotation
			End Site
			{
				OFFSET 0.000000 11.566666 0.000000
			}
		}
	}
	JOINT newVegas:ElvisFacialAnim_Joint
	{
		OFFSET 1.000000 -95.330101 -8.825800
		CHANNELS 3 Xrotation Yrotation Zrotation
		End Site
		{
			OFFSET 0.000000 35.315800 0.000000
		}
	}
}
MOTION
Frames: 4
Frame Time: 0.016667
-1.165317 79.134567 3.877241 8.122744 -10.761234 3.218614 0.000000 -0.000000 -0.000000 -58.689247 -1.035400 25.469441 54.139214 0.620282 5.926466 1.231160 1.624231 -24.065897 -0.000000 0.000001 -0.000000 0.000000 0.000000 -0.000001 -32.963893 5.088052 -35.330943 57.238908 2.571146 -1.051794 -23.501180 -8.779594 30.412479 -0.000000 0.000000 0.000000 0.000002 0.000001 0.000000 8.209173 1.512430 -1.577917 6.501515 1.669130 -0.600553 6.503122 1.665277 -0.587177 -0.696103 -0.031293 0.138982 -0.696081 -0.031291 0.138981 0.000001 0.000001 -0.000000 -0.696095 -0.031289 0.138980 -0.696157 -0.031301 0.138982 0.000001 0.000000 -0.000000 0.000001 0.000001 -0.000000 2.609672 -14.773704 -9.661123 -25.061846 -6.032406 -45.944982 0.000022 -124.725729 0.000032 -67.570331 18.900117 22.799783 39.578720 -17.197335 -21.086433 11.236015 23.988453 2.901705 0.000002 -0.000002 -0.000005 3.600017 6.051856 -61.463472 4.128141 6.308906 -66.366196 -0.000000 -0.000001 -0.000001 2.451412 5.270989 -49.859934 3.793771 6.152668 -63.285958 -0.000001 -0.000000 0.000004 2.452892 5.272226 -49.876056 3.792052 6.151789 -63.269798 0.000001 -0.000000 -0.000004 7.187313 7.991531 -61.391782 4.144309 2.228321 -66.583204 0.000002 -0.000002 -0.000000 -0.000002 0.000003 0.000003 -0.000002 0.000003 0.000003 -0.000002 0.000004 0.000003 -0.000001 -0.000001 0.000001 -0.000001 0.000000 0.000002 -0.000001 -0.000001 0.000001 -0.000000 -0.000001 0.000001 1.602767 8.845881 9.965477 3.934441 4.254979 41.144377 -0.000917 89.361858 0.000920 32.702044 19.603369 -22.590434 29.376439 16.962642 20.541343 9.559531 -25.704474 -5.659326 -0.000003 -0.000002 -0.000001 2.155495 -5.036566 46.317149 4.033399 -6.309978 65.142909 -0.000001 -0.000002 -0.000002 1.448242 -4.252494 37.599693 3.476832 -6.022573 59.964785 -0.000001 -0.000000 0.000001 1.448242 -4.252487 37.599696 3.476848 -6.022568 59.964792 -0.000003 -0.000001 -0.000002 2.155490 -5.036577 46.317162 4.033389 -6.309964 65.142902 0.000001 -0.000000 0.000001 0.000000 -0.000002 0.000003 0.000000 0.000001 0.000001 0.000000 -0.000002 0.000002 0.000001 -0.000001 -0.000003 0.000001 0.000000 -0.000004 0.000001 -0.000001 -0.000003 0.000001 -0.000000 -0.000003 -0.000001 0.000000 -0.000000 -0.000001 0.000000 -0.000000 -0.000001 0.000000 -0.000000 -0.000001 0.000000 -0.000000 -0.000001 0.000000 -0.000000 -0.000001 0.000000 -0.000000 -0.000001 0.000000 -0.000000 -0.000001 -0.000000 0.000000 0.000000 -0.000000 -0.000000 
-1.111754 79.184959 3.930815 8.149310 -10.742402 3.150447 0.000000 0.000000 -0.000000 -58.728781 -0.994271 25.433661 54.173823 0.640044 6.012382 1.171624 1.633835 -24.033482 -0.000000 -0.000001 -0.000000 -0.000000 0.000001 0.000003 -32.807161 4.989859 -35.309373 56.920775 2.506272 -1.011606 -23.323366 -8.746189 30.475747 -0.000000 -0.000002 -0.000000 -0.000003 -0.000001 -0.000001 8.186021 1.504227 -1.603690 6.485268 1.665930 -0.610207 6.486870 1.662227 -0.596724 -0.684965 -0.035529 0.154329 -0.684944 -0.035527 0.154329 0.000002 0.000000 -0.000000 -0.684789 -0.035528 0.154331 -0.685024 -0.035528 0.154329 -0.000000 0.000000 -0.000000 0.000002 0.000000 -0.000000 2.607219 -14.764979 -9.614780 -25.050245 -6.005739 -46.040888 0.000026 -124.876991 0.000029 -67.329669 18.877810 22.729312 39.578709 -17.197330 -21.086438 11.236015 23.988454 2.901703 -0.000000 0.000003 -0.000003 3.600015 6.051856 -61.463472 4.128139 6.308901 -66.366196 0.000002 -0.000001 -0.000000 2.451413 5.270992 -49.859937 3.793769 6.152670 -63.285951 0.000004 0.000002 0.000001 2.452893 5.272226 -49.876060 3.792054 6.151791 -63.269804 -0.000003 -0.000001 0.000001 7.187309 7.991535 -61.391776 4.144309 2.228324 -66.583211 0.000001 -0.000003 -0.000002 -0.000001 0.000000 0.000001 -0.000001 0.000000 0.000001 -0.000001 0.000001 0.000001 -0.000001 0.000000 -0.000001 -0.000000 0.000000 -0.000001 -0.000001 0.000000 -0.000001 -0.000000 -0.000001 -0.000001 1.606122 8.884878 9.946594 4.076250 4.257991 41.187646 0.001133 89.427093 -0.001452 32.911868 19.509604 -22.720508 29.376439 16.962643 20.541336 9.559529 -25.704476 -5.659319 0.000003 0.000000 0.000003 2.155498 -5.036566 46.317149 4.033400 -6.309981 65.142916 -0.000000 -0.000002 -0.000000 1.448247 -4.252496 37.599700 3.476830 -6.022566 59.964792 -0.000001 0.000000 0.000001 1.448245 -4.252489 37.599700 3.476851 -6.022569 59.964792 -0.000001 -0.000001 -0.000001 2.155492 -5.036575 46.317162 4.033388 -6.309963 65.142888 -0.000001 -0.000000 -0.000001 0.000001 -0.000003 -0.000001 0.000001 -0.000004 0.000000 0.000001 -0.000003 -0.000001 0.000001 -0.000003 -0.000002 0.000001 -0.000002 -0.000001 0.000001 -0.000003 -0.000002 0.000002 -0.000002 -0.000001 0.000001 0.000000 -0.000000 0.000001 0.000000 -0.000000 0.000001 0.000000 -0.000000 0.000001 0.000000 -0.000000 0.000001 0.000000 -0.000000 0.000001 0.000000 -0.000000 0.000001 0.000000 -0.000000 0.000002 -0.000000 -0.000000 0.000000 0.000000 -0.000000 
-1.064322 79.213837 3.974639 8.208327 -10.747143 3.075221 0.000000 -0.000002 0.000000 -58.811692 -1.028836 25.437936 54.269278 0.694369 6.048087 1.103908 1.646127 -24.008856 0.000000 0.000000 0.000000 -0.000000 -0.000000 0.000002 -32.765842 4.869845 -35.269727 56.656511 2.511200 -1.016425 -23.152381 -8.712220 30.529822 0.000000 -0.000001 0.000000 0.000001 -0.000001 0.000002 8.163315 1.500453 -1.634994 6.469513 1.666600 -0.622082 6.471172 1.662709 -0.608367 -0.664362 -0.036339 0.163762 -0.664356 -0.036339 0.163763 -0.000001 0.000000 0.000000 -0.664339 -0.036342 0.163761 -0.664266 -0.036338 0.163762 -0.000001 -0.000000 -0.000000 -0.000001 0.000000 0.000000 2.606489 -14.776932 -9.549427 -25.079251 -5.936105 -46.237454 0.000073 -124.947601 0.000083 -67.140398 18.934346 22.684788 39.578713 -17.197330 -21.086430 11.236013 23.988454 2.901701 -0.000000 0.000000 -0.000001 3.600020 6.051854 -61.463479 4.128138 6.308903 -66.366189 0.000001 -0.000001 0.000000 2.451412 5.270988 -49.859934 3.793774 6.152669 -63.285951 -0.000001 0.000001 0.000001 2.452896 5.272226 -49.876053 3.792051 6.151789 -63.269798 0.000001 0.000001 -0.000001 7.187303 7.991530 -61.391776 4.144316 2.228326 -66.583204 0.000002 -0.000003 0.000001 -0.000002 0.000001 0.000003 -0.000002 0.000001 0.000003 -0.000002 0.000002 0.000003 -0.000001 -0.000001 -0.000002 -0.000001 -0.000002 -0.000002 -0.000001 -0.000001 -0.000002 -0.000001 -0.000003 -0.000002 1.612933 8.972300 9.892405 4.280591 4.276506 41.166609 0.003168 89.494227 -0.002708 33.037529 19.369518 -22.853886 29.376439 16.962638 20.541345 9.559527 -25.704471 -5.659314 0.000000 -0.000001 -0.000002 2.155505 -5.036569 46.317149 4.033396 -6.309975 65.142909 -0.000002 0.000001 0.000001 1.448246 -4.252495 37.599693 3.476832 -6.022565 59.964792 0.000000 -0.000001 -0.000001 1.448249 -4.252486 37.599700 3.476852 -6.022568 59.964792 -0.000003 -0.000003 0.000001 2.155495 -5.036575 46.317155 4.033393 -6.309966 65.142895 0.000002 0.000002 -0.000001 -0.000002 -0.000001 -0.000000 -0.000002 -0.000002 0.000001 -0.000002 -0.000002 -0.000001 -0.000000 -0.000003 -0.000001 -0.000000 -0.000002 -0.000000 -0.000000 -0.000003 -0.000001 0.000000 -0.000002 -0.000000 -0.000001 0.000000 -0.000000 -0.000001 0.000000 -0.000000 -0.000001 0.000000 -0.000000 -0.000001 0.000000 -0.000000 -0.000001 0.000000 -0.000000 -0.000001 0.000000 -0.000000 -0.000001 0.000000 -0.000000 0.000001 0.000001 -0.000000 0.000000 -0.000002 0.000000 
-1.021880 79.228691 4.013653 8.256591 -10.777482 3.029084 -0.000000 -0.000001 0.000000 -58.838781 -1.123109 25.454076 54.377257 0.777116 6.002719 1.017583 1.662148 -23.996160 0.000000 -0.000000 0.000000 -0.000000 -0.000002 -0.000000 -32.752369 4.810856 -35.250292 56.463640 2.536281 -1.024333 -23.010194 -8.686226 30.582695 -0.000000 -0.000005 0.000000 0.000000 0.000001 0.000000 8.141849 1.500520 -1.667564 6.454643 1.669952 -0.635076 6.456431 1.665761 -0.621080 -0.639504 -0.035615 0.169300 -0.639493 -0.035614 0.169298 -0.000001 0.000000 -0.000000 -0.639511 -0.035615 0.169299 -0.639496 -0.035611 0.169300 0.000002 0.000000 0.000000 -0.000001 0.000000 -0.000000 2.606931 -14.801046 -9.475212 -25.130218 -5.847825 -46.486431 -0.000047 -124.971247 -0.000047 -66.982005 19.038357 22.658753 39.578720 -17.197337 -21.086432 11.236015 23.988453 2.901705 0.000002 -0.000002 -0.000005 3.600014 6.051853 -61.463472 4.128139 6.308900 -66.366189 -0.000000 0.000000 -0.000000 2.451412 5.270988 -49.859930 3.793770 6.152667 -63.285951 -0.000001 -0.000002 0.000002 2.452889 5.272226 -49.876060 3.792051 6.151791 -63.269804 -0.000001 -0.000000 -0.000001 7.187311 7.991528 -61.391782 4.144314 2.228328 -66.583204 0.000000 -0.000002 -0.000002 -0.000001 -0.000001 -0.000003 -0.000001 -0.000001 -0.000003 -0.000001 -0.000001 -0.000003 -0.000002 0.000000 0.000000 -0.000001 0.000000 -0.000001 -0.000002 0.000000 0.000000 -0.000001 -0.000000 -0.000000 1.621829 9.085367 9.820729 4.518114 4.299211 41.105212 0.000048 89.563075 0.000224 33.107218 19.210735 -22.984649 29.376439 16.962642 20.541338 9.559528 -25.704471 -5.659315 -0.000001 -0.000002 -0.000001 2.155502 -5.036568 46.317152 4.033400 -6.309978 65.142909 -0.000001 -0.000002 0.000001 1.448249 -4.252497 37.599700 3.476828 -6.022569 59.964792 -0.000001 0.000003 0.000001 1.448247 -4.252489 37.599700 3.476850 -6.022567 59.964792 -0.000002 0.000001 -0.000000 2.155495 -5.036577 46.317155 4.033392 -6.309973 65.142888 0.000002 -0.000004 0.000001 -0.000005 -0.000000 0.000001 -0.000003 -0.000001 0.000001 -0.000005 -0.000001 -0.000000 0.000001 -0.000001 0.000001 0.000001 0.000000 0.000002 0.000001 -0.000001 0.000001 0.000001 0.000000 0.000002 0.000000 0.000000 -0.000000 0.000000 0.000000 -0.000000 0.000000 0.000000 -0.000000 0.000000 0.000000 -0.000000 0.000000 0.000000 -0.000000 0.000000 0.000000 -0.000000 0.000000 0.000000 -0.000000 0.000001 0.000001 -0.000000 -0.000000 -0.000001 0.000000 
